<svg t="1703149485000" class="icon" viewBox="0 0 1024 1024" version="1.1" xmlns="http://www.w3.org/2000/svg" p-id="8253" width="200" height="200">
    <path d="M923 283.6c-13.4-31.1-32.6-58.9-56.9-82.8-24.3-23.8-52.5-42.4-84-55.5-31.5-13.1-65-19.8-99.4-19.8-35.7 0-70.4 7.1-102.9 20.9-28.7 12.2-55 29.6-77.7 51.8-22.7-22.2-49-39.6-77.7-51.8C391.4 107.1 356.7 100 321 100c-34.4 0-67.9 6.7-99.4 19.8-31.5 13.1-59.7 31.7-84 55.5-24.3 23.9-43.5 51.7-56.9 82.8-13.9 32.3-21 66.6-21 101.9 0 35.3 7.1 69.6 21 101.9 13.4 31.1 32.6 58.9 56.9 82.8l311.3 311.3c6.2 6.2 14.4 9.7 23.2 9.7 8.8 0 17-3.5 23.2-9.7L865.1 570.2c24.3-23.9 43.5-51.7 56.9-82.8 13.9-32.3 21-66.6 21-101.9 0.1-35.3-7-69.6-20.9-101.9zM839.6 525.9L512 853.5 184.4 525.9c-17.6-17.2-31.4-37-41.2-58.9-9.7-22-14.6-45.2-14.6-68.9s4.9-46.9 14.6-68.9c9.8-21.9 23.6-41.7 41.2-58.9 17.6-17.2 37.8-30.6 59.8-40.2 22-9.6 45.2-14.4 68.8-14.4s46.8 4.8 68.8 14.4c22 9.6 42.2 23 59.8 40.2l17.1 16.8c6.2 6.2 14.4 9.7 23.2 9.7 8.8 0 17-3.5 23.2-9.7l17.1-16.8c17.6-17.2 37.8-30.6 59.8-40.2 22-9.6 45.2-14.4 68.8-14.4s46.8 4.8 68.8 14.4c22 9.6 42.2 23 59.8 40.2 17.6 17.2 31.4 37 41.2 58.9 9.7 22 14.6 45.2 14.6 68.9s-4.9 46.9-14.6 68.9c-9.8 21.9-23.6 41.7-41.2 58.9z" p-id="8254"></path>
</svg>