<svg t="1703149435000" class="icon" viewBox="0 0 1024 1024" version="1.1" xmlns="http://www.w3.org/2000/svg" p-id="7242" width="200" height="200">
    <path d="M672 448c0-141.385-114.615-256-256-256S160 306.615 160 448s114.615 256 256 256 256-114.615 256-256z m-76.8 0c0 99.411-80.389 179.2-179.2 179.2S236.8 547.411 236.8 448 317.189 268.8 416 268.8 595.2 349.189 595.2 448z" p-id="7243"></path>
    <path d="M903.168 835.584l-212.48-212.48c41.664-61.312 66.048-135.168 66.048-214.528C756.736 230.4 582.144 56 416 56S75.264 230.4 75.264 396.576 249.856 737.152 416 737.152c79.36 0 153.216-24.384 214.528-66.048l212.48 212.48c12.48 12.48 32.768 12.48 45.248 0 12.48-12.48 12.48-32.768 0-45.248l15.168-15.168zM416 665.472c-148.224 0-268.864-120.64-268.864-268.864S267.776 127.744 416 127.744 684.864 248.384 684.864 396.608 564.224 665.472 416 665.472z" p-id="7244"></path>
</svg>