<svg t="1703149385000" class="icon" viewBox="0 0 1024 1024" version="1.1" xmlns="http://www.w3.org/2000/svg" p-id="6301" width="200" height="200">
    <path d="M512 736c-61.9 0-112-50.1-112-112s50.1-112 112-112 112 50.1 112 112-50.1 112-112 112z m0-160c-26.5 0-48 21.5-48 48s21.5 48 48 48 48-21.5 48-48-21.5-48-48-48z" p-id="6302"></path>
    <path d="M880.2 540.4l-50.5-29.2c-2.8-1.6-4.4-4.8-3.9-8l8.5-58.3c1.8-12.1-6.3-23.5-18.4-25.3l-58.3-8.5c-3.2-0.5-5.7-2.9-6.4-6l-14.8-56.9c-3.1-11.8-15.2-18.9-27-15.8l-56.9 14.8c-3.1 0.8-6.5-0.1-8.6-2.5l-38.1-45c-7.9-9.3-21.9-10.5-31.2-2.6l-45 38.1c-2.4 2-5.8 2.5-8.6 1.3l-54.2-22.1c-11.2-4.6-24 0.7-28.6 11.9l-22.1 54.2c-1.2 2.9-4 4.8-7.1 4.8H415c-12.1 0-22 9.9-22 22v58.3c0 3.1-1.9 6-4.8 7.1l-54.2 22.1c-11.2 4.6-16.5 17.4-11.9 28.6l22.1 54.2c1.2 2.9 0.7 6.2-1.3 8.6l-38.1 45c-7.9 9.3-6.7 23.3 2.6 31.2l45 38.1c2.4 2 3.3 5.5 2.5 8.6l-14.8 56.9c-3.1 11.8 4 23.9 15.8 27l56.9 14.8c3.1 0.8 5.5 3.2 6 6.4l8.5 58.3c1.8 12.1 13.2 20.2 25.3 18.4l58.3-8.5c3.2-0.5 6.4 1.1 8 3.9l29.2 50.5c6.1 10.5 19.5 14.1 30 8.1l50.5-29.2c2.8-1.6 6.4-1.6 9.2 0l50.5 29.2c10.5 6.1 23.9 2.4 30-8.1l29.2-50.5c1.6-2.8 4.8-4.4 8-3.9l58.3 8.5c12.1 1.8 23.5-6.3 25.3-18.4l8.5-58.3c0.5-3.2 2.9-5.7 6-6.4l56.9-14.8c11.8-3.1 18.9-15.2 15.8-27l-14.8-56.9c-0.8-3.1 0.1-6.5 2.5-8.6l45-38.1c9.3-7.9 10.5-21.9 2.6-31.2l-38.1-45c-2-2.4-2.5-5.8-1.3-8.6l22.1-54.2c4.6-11.2-0.7-24-11.9-28.6l-54.2-22.1c-2.9-1.2-4.8-4-4.8-7.1V548c0-3.1 1.9-6 4.8-7.1l54.2-22.1c11.2-4.6 16.5-17.4 11.9-28.6l-22.1-54.2c-1.2-2.9-0.7-6.2 1.3-8.6l38.1-45c7.9-9.3 6.7-23.3-2.6-31.2l-45-38.1c-2.4-2-3.3-5.5-2.5-8.6l14.8-56.9c3.1-11.8-4-23.9-15.8-27l-56.9-14.8c-3.1-0.8-5.5-3.2-6-6.4l-8.5-58.3c-1.8-12.1-13.2-20.2-25.3-18.4l-58.3 8.5c-3.2 0.5-6.4-1.1-8-3.9l-29.2-50.5c-6.1-10.5-19.5-14.1-30-8.1l-50.5 29.2c-2.8 1.6-6.4 1.6-9.2 0l-50.5-29.2c-10.5-6.1-23.9-2.4-30 8.1l-29.2 50.5c-1.6 2.8-4.8 4.4-8 3.9l-58.3-8.5c-12.1-1.8-23.5 6.3-25.3 18.4l-8.5 58.3c-0.5 3.2-2.9 5.7-6 6.4l-56.9 14.8c-11.8 3.1-18.9 15.2-15.8 27l14.8 56.9c0.8 3.1-0.1 6.5-2.5 8.6l-45 38.1c-9.3 7.9-10.5 21.9-2.6 31.2l38.1 45c2 2.4 2.5 5.8 1.3 8.6l-22.1 54.2c-4.6 11.2 0.7 24 11.9 28.6l54.2 22.1c2.9 1.2 4.8 4 4.8 7.1V476c0 12.1 9.9 22 22 22h58.3c3.1 0 6 1.9 7.1 4.8l22.1 54.2c4.6 11.2 17.4 16.5 28.6 11.9l54.2-22.1c2.9-1.2 6.2-0.7 8.6 1.3l45 38.1c9.3 7.9 23.3 6.7 31.2-2.6l38.1-45c2-2.4 5.5-3.3 8.6-2.5l56.9 14.8c11.8 3.1 23.9-4 27-15.8l14.8-56.9c0.8-3.1 3.2-5.5 6.4-6l58.3-8.5c12.1-1.8 20.2-13.2 18.4-25.3l-8.5-58.3c-0.5-3.2 1.1-6.4 3.9-8l50.5-29.2c10.5-6.1 14.1-19.5 8.1-30z" p-id="6303"></path>
</svg>