<svg t="1703149585000" class="icon" viewBox="0 0 1024 1024" version="1.1" xmlns="http://www.w3.org/2000/svg" p-id="10275" width="200" height="200">
    <path d="M908.1 353.1l-253.9-36.9L540.7 86.1c-3.6-7.3-11-12.1-19.2-12.1s-15.6 4.8-19.2 12.1l-113.5 230.1-253.9 36.9c-8 1.2-14.7 6.7-17.7 14.3s-1.2 16.1 4.5 21.9l183.7 179.1-43.4 252.9c-1.4 8.1 1.9 16.3 8.5 21.4 6.6 5.1 15.5 5.8 22.7 1.8l227.1-119.4 227.1 119.4c7.2 4 16.1 3.3 22.7-1.8 6.6-5.1 9.9-13.3 8.5-21.4l-43.4-252.9 183.7-179.1c5.7-5.5 7.2-14.3 4.5-21.9s-9.7-13.1-17.7-14.3zM679.8 551.5L730 739.4l-166.3-87.3-166.3 87.3 50.2-187.9-142.3-139 196.9-28.6L521.5 176l99.3 197.9 196.9 28.6-142.3 139z" p-id="10276"></path>
</svg>