<svg viewBox="0 0 34.0001 34" xmlns="http://www.w3.org/2000/svg" xmlns:xlink="http://www.w3.org/1999/xlink" width="34.000061" height="34.000000" fill="none" customFrame="#000000">
	<path id="没上传头像时" d="M17.0021 0C7.65449 0 0 7.65031 0 17.0021C0 26.3539 7.65031 34 17.0021 34C26.3539 34 34 26.3497 34 16.9979C34.0042 7.65031 26.3539 0 17.0021 0ZM17.4285 5.10021C23.9083 5.10021 23.9083 9.98721 23.9083 12.7505C23.9083 15.5138 21.3582 20.614 17.4285 20.7186C13.4988 20.8231 10.9487 15.6183 10.9487 12.7505C10.9487 9.98721 10.9487 5.10021 17.4285 5.10021L17.4285 5.10021ZM17.0021 33.0427C12.1151 33.0427 7.65031 30.8103 4.67798 27.307C5.10439 26.2452 5.63531 25.0746 6.37944 24.4392C7.97221 23.1641 12.7547 21.0405 12.7547 21.0405L15.7312 26.7761L16.2621 25.3965L15.4093 23.6951L17.1108 21.9936L18.8122 23.6951L18.0639 25.501L18.4903 26.8848L21.5714 21.2537C21.5714 21.2537 26.3539 23.3773 27.9466 24.6524C28.6908 25.1833 29.2217 26.1407 29.5394 26.9893C26.6716 30.7058 22.1023 33.0427 17.0021 33.0427L17.0021 33.0427Z" fill="rgb(232,243,255)" fill-rule="nonzero" />
</svg>
