<svg width="61" height="61" viewBox="0 0 61 61" fill="none" xmlns="http://www.w3.org/2000/svg">
<path d="M59.8711 30.5C59.8711 56.0969 55.968 60 30.3711 60C4.7742 60 0.871094 56.0969 0.871094 30.5C0.871094 4.9031 4.7742 1 30.3711 1C55.968 1 59.8711 4.9031 59.8711 30.5Z" fill="#87EA5C"/>
<path d="M34.5271 26.9915C34.4226 27.6369 33.6061 27.8574 33.1978 27.3504L20.4888 11.5716C19.9658 10.9223 20.7318 10.0242 21.4533 10.4408L30.951 15.9243L36.3612 6.55362C36.7806 5.82706 37.889 6.21903 37.7551 7.04658L34.5271 26.9915Z" fill="#237F00"/>
<path d="M34.9157 33.3782C34.2696 33.4783 33.8076 32.7699 34.1636 32.2249L45.2428 15.262C45.6988 14.564 46.7896 15.0149 46.6164 15.8299L44.3362 26.5572L54.9201 28.8069C55.7407 28.9813 55.7104 30.1565 54.882 30.2849L34.9157 33.3782Z" fill="#237F00"/>
<path d="M28.9603 35.7227C28.6654 35.1391 29.1964 34.4809 29.8248 34.651L49.3811 39.9461C50.1858 40.1641 50.094 41.3408 49.2654 41.4279L38.3585 42.5743L39.4896 53.3353C39.5773 54.1697 38.4502 54.504 38.0721 53.7558L28.9603 35.7227Z" fill="#237F00"/>
<path d="M24.8915 30.7822C25.3554 30.3214 26.1455 30.623 26.1779 31.2732L27.1852 51.5086C27.2266 52.3413 26.079 52.6177 25.7402 51.8565L21.2795 41.8377L11.3946 46.2387C10.6282 46.5799 9.96197 45.6114 10.5567 45.0206L24.8915 30.7822Z" fill="#237F00"/>
<path d="M28.3305 25.3842C28.9121 25.683 28.8694 26.5277 28.261 26.7594L9.32726 33.9705C8.54806 34.2672 7.93066 33.2612 8.54982 32.7037L16.6999 25.3653L9.45967 17.3243C8.8983 16.7008 9.61357 15.7679 10.3592 16.1509L28.3305 25.3842Z" fill="#237F00"/>
</svg>
